Coordinates
version=1
nRows=12
nColumns=24
inDegrees=yes

Units are S.I. units (second, meters, Newtons, ...)
Angles are in degrees.

endheader
time	pelvis_tilt	pelvis_list	pelvis_rotation	pelvis_tx	pelvis_ty	pelvis_tz	hip_flexion_r	hip_adduction_r	hip_rotation_r	knee_angle_r	ankle_angle_r	subtalar_angle_r	mtp_angle_r	hip_flexion_l	hip_adduction_l	hip_rotation_l	knee_angle_l	ankle_angle_l	subtalar_angle_l	mtp_angle_l	lumbar_extension	lumbar_bending	lumbar_rotation
      2.44000000	     -9.38774119	      3.99707277	    358.48476139	     -0.72208080	      1.36635559	     -0.98354478	      3.07589554	     -1.92521629	      8.10180387	    -16.31226305	     12.17795867	     -4.47802339	      5.58460763	     27.43941780	      3.02771138	     -5.79806834	      0.91912501	     -8.75415428	      4.02977821	     31.30819936	     -5.21104806	     -0.88756473	     15.93181544
      2.44500000	     -9.42640564	      4.08071515	    358.50838308	     -0.71684419	      1.36580151	     -0.98424125	      2.81432806	     -2.07310914	      8.01089379	    -16.36979922	     12.27421332	     -4.32719562	      5.72673825	     27.61182549	      3.16152232	     -5.42100417	      0.09554517	     -8.89231098	      2.88481032	     31.01661293	     -5.16656256	     -1.01961199	     15.83001917
      2.45000000	     -9.45010916	      4.16270688	    358.50224314	     -0.71160298	      1.36530108	     -0.98490560	      2.55377843	     -2.20926159	      7.98084318	    -16.45145036	     12.31434791	     -4.28178581	      5.86906854	     27.74069573	      3.28935979	     -5.11343187	     -0.67347724	     -9.06789824	      1.86683380	     30.75714216	     -5.13510026	     -1.15794606	     15.80458984
      2.45500000	     -9.49182215	      4.24943780	    358.51104724	     -0.70634311	      1.36481552	     -0.98560605	      2.33224395	     -2.34965192	      7.94299681	    -16.57684704	     12.31864420	     -4.23233767	      6.03685342	     27.86487189	      3.43707330	     -4.77060403	     -1.38381973	     -9.31214270	      0.89716965	     30.54077162	     -5.08637481	     -1.29549965	     15.74189881
      2.46000000	     -9.53201715	      4.35519954	    358.51768841	     -0.70105479	      1.36437853	     -0.98630085	      2.13146061	     -2.50655880	      7.91868912	    -16.74567092	     12.28321070	     -4.19583211	      6.20898063	     27.95027070	      3.61005772	     -4.43194114	     -2.00791654	     -9.61911787	      0.01521683	     30.37049042	     -5.03301000	     -1.46626142	     15.69191258
      2.46500000	     -9.61122519	      4.43427147	    358.54115947	     -0.69578011	      1.36395483	     -0.98706200	      2.00350359	     -2.63386772	      7.86906729	    -16.97284504	     12.21754864	     -4.16550472	      6.44741474	     28.06389288	      3.77251747	     -4.07563149	     -2.58444382	     -9.98147890	     -0.83490899	     30.27667060	     -4.94609006	     -1.58883615	     15.61897362
      2.47000000	     -9.66317825	      4.53746540	    358.55728244	     -0.69047889	      1.36361274	     -0.98782569	      1.87698436	     -2.78681829	      7.82243898	    -17.25574187	     12.10935597	     -4.12866823	      6.72530168	     28.10643645	      3.96326620	     -3.72860151	     -3.06713496	    -10.38373551	     -1.59157206	     30.25600588	     -4.88591408	     -1.73832206	     15.55630758
      2.47500000	     -9.71876779	      4.64559269	    358.57874639	     -0.68515960	      1.36334039	     -0.98860980	      1.78719250	     -2.94308961	      7.77017985	    -17.59991482	     11.95271525	     -4.09879028	      7.05425446	     28.12324424	      4.16651408	     -3.37728545	     -3.48091278	    -10.81701043	     -2.27107804	     30.30454272	     -4.82134742	     -1.89405133	     15.48772874
      2.48000000	     -9.77588586	      4.74793405	    358.61704114	     -0.67984511	      1.36312206	     -0.98943916	      1.73813182	     -3.09246639	      7.70098523	    -18.01808776	     11.74697380	     -4.07474771	      7.48466588	     28.11896066	      4.37572764	     -2.98594902	     -3.83974125	    -11.27087344	     -2.87030225	     30.45405479	     -4.75877241	     -2.04208801	     15.41642657
      2.48500000	     -9.84574180	      4.86334726	    358.63578303	     -0.67450397	      1.36297214	     -0.99027695	      1.75360621	     -3.25606765	      7.62905776	    -18.52267523	     11.48873516	     -4.00629366	      7.89861601	     28.10726209	      4.59377927	     -2.64891982	     -4.16232900	    -11.71146204	     -3.42391997	     30.55034451	     -4.67635199	     -2.19614999	     15.35918493
      2.49000000	     -9.90219351	      4.97330373	    358.67346090	     -0.66916327	      1.36289893	     -0.99116983	      1.79896072	     -3.41625352	      7.52373617	    -19.11315633	     11.18457654	     -3.92881861	      8.38416304	     28.06441842	      4.81914494	     -2.26024895	     -4.45327598	    -12.13829851	     -3.92415125	     30.68315521	     -4.61309890	     -2.33698836	     15.28707212
      2.49500000	     -9.94182289	      5.08007466	    358.70956502	     -0.66382539	      1.36291332	     -0.99209328	      1.88072522	     -3.57475949	      7.39974848	    -19.79489009	     10.81507919	     -3.84809026	      8.97144664	     27.98882393	      5.04403635	     -1.86882460	     -4.72285280	    -12.54372370	     -4.38835023	     30.80775068	     -4.57299690	     -2.47125896	     15.23034194
